<?xml version="1.0" encoding="utf-8"?>
<!-- Generator: Adobe Illustrator 17.0.0, SVG Export Plug-In . SVG Version: 6.00 Build 0)  -->
<!DOCTYPE svg PUBLIC "-//W3C//DTD SVG 1.1//EN" "http://www.w3.org/Graphics/SVG/1.1/DTD/svg11.dtd">
<svg version="1.1" id="Layer_1" xmlns="http://www.w3.org/2000/svg" xmlns:xlink="http://www.w3.org/1999/xlink" x="0px" y="0px"
	 width="587.291px" height="880.746px" viewBox="0 0 587.291 880.746" enable-background="new 0 0 587.291 880.746"
	 xml:space="preserve">
<g>
	<path fill="#520F11" d="M567.48,341.838c-6.073,0.722-11.376,3.151-15.909,7.286c23.095-66.286,3.98-142.753-28.711-199.951
		c-13.256-23.194-37.956-52.643-67.791-52.843c-31.047-0.208-30.884-36.898-66.233-34.046c-0.499-11.171,5.844-33.28-6.841-40.257
		c-4.06,5.181-7.596,10.699-10.607,16.553c-2.663-0.788-71.215-42.832-68.579-21.407c-43.75-35.681-118.43-9.384-157.702,21.096
		c-20.29,15.748-28.017,40.759-47.779,54.583c-10.17,7.115-13.419,18.554-22.025,24.15c-6.276,4.082-20.771,11.748-24.336,18.358
		c2.992,3.9,14.877-7.546,19.219-4.866c-10.061-6.213-21.435,79.903-19.102,88.602c4.455-1.192,8.993-21.307,10.749-24.892
		c8.362-17.072,17.893-32.059,31.46-45.562c30.511-30.369,61.402-57.187,103.379-69.914c7.612-2.308,84.812-22.904,81.921-5.15
		c-0.772,4.743-7.442,21.999-15.284,16.796c-8.584,11.551,4.354,11.362,3.388,17.086c-0.979,5.802-10.682-1.424-8.317,9.905
		c4.088,19.59-5.261,8.249-11.226,21.65c-4.769,10.714,38.226,17.919-0.755,28.832c-6.642,1.859-18.295-3.95-18.099,7.896
		c0.134,8.093-7.037,21.223-4.615,28.369c0.154,0.454,20.973,3.729,21.134,3.705c0.039-0.366-0.255-2.067,0.088-2.135
		c-0.008,4.354-25.378,11.115-12.371,16.255c6.887,2.722,51.885-3.33,58.682-5.905c21.692-8.218,35.831,6.944,25.37,30.629
		c-0.982,2.223-39.74,12.964-32.225,22.209c-3.691-4.541-1.624-18.855-2.555-24.227c-1.721-9.927-12.689-11.037-20.499-14.763
		c-5.105-2.436-8.469-2.918-8.102,5.414c-9.994,3.884-29.436-7.234-25.915,14.758c-8.843,0.69-15.509-3.127-23.104,3.35
		c-6.346,5.412-6.428-3.904-11.64-2.67c-0.668,2.135-1.335,4.27-2.003,6.405c-6.156-0.683-12.295-1.5-18.416-2.449
		c-16.428-0.024-21.611,4.818-35.74,7.65c-16.031,3.213-30.242,6.445-42.522,18.162c-9.415,8.983-5.154,20.695-14.356,27.899
		c-5.037,3.944-3.601,31.861,4.066,36.581c10.047,6.184,52.656-23.585,52.613-25.266c0.269,10.578-24.792,18.333-26.864,30.807
		c-1.328,7.999-2.166,26.693-0.268,33.648c6.723-2.777,12.79-6.605,18.2-11.482c3.101,10.954,16.501,8.82,21.45,15.054
		c0.538,4.073-1.489,5.629-6.079,4.668c2.688,6.044-1.324,17.399,2.348,22.668c-7.827,0.888-11.804-4.662-19.047-0.369
		c-9.705,5.753-6.45-10.149-14.903-4.745c1.726,14.845,1.836,12.365,15.446,15.041c-1.019,3.91-3.06,7.182-6.124,9.815
		c-1.907-1.373,30.718,5.46,28.564,6.264c-0.63,9.41-17.263,6.537-17.16,17.592c17.299,7.355,61.298-45.496,71.639-55.817
		c13.785-13.759,32.464-30.401,39.344-49.117c6.159-16.754-7.112-54.762,20.428-56.533c0.873,2.351,7.182,29.341,7.466,28.568
		c-5.213,14.218,5.411,56.477-2.455,62.361c8.622,15.088-3.145,25.333-0.404,43.93c0.983,6.667-5.489,37.981-2.534,41.784
		c-5.082,3.371-46.849-21.435-39.422,11.653c5.265,23.456,41.866,9.704,40.201,1.625c14.055-3.112-5.952,16.971-5.835,16.462
		c-1.568,6.794-2.497,51.422-3.225,51.985c-12.505,9.673-34.142,7.029-48.499,16.899c-14.812,10.182-31.203,13.757-45.223,24.607
		c-9.191,7.113-22.88,33.155-18.326,44.931c6.797,17.575,26.251-20.562,31.459-28.089c10.882-15.727,21.391-24.924,39.108-33.146
		c10.243-4.754,39.06-0.722,44.267,12.419c0.586,1.479-83.009,26.661-38.493,30.4c1.806,7.714-36.109,13.91-38.337,29.855
		c5.368,1.045,9.784-0.56,13.247-4.813c-1.042,2.451-1.685,5.001-1.928,7.65c10.269-7.204,33.172-25.996,44.663-26.755
		c1.874-0.124,31.805-2.608,25.692,9.198c-3.238,1.101-6.573,1.73-10.006,1.887c4.75,5.585-3.757,24.071-10.02,15.586
		c-4.624,4.744-1.295,15.6-5.435,21.917c-7.808,5.474-16.34,16.038-20.382,24.618c-8.735,18.541-30.951,15.362-48.254,2.23
		c-15.792-11.986-29.218-1.874-36.336-13.82c-6.165-10.346-20.292-20.618-30.1-27.523c-7.41-5.217-7.543-17.262-15.301-21.79
		c-4.782-2.791,17.64,39.132,17.909,40.111c-2.981,1.76-4.936,4.302-5.865,7.627c2.813,0.615,5.568,0.409,8.267-0.619
		c8.831,0.05,18.73,16.332,23.473,21.767c16.46,18.86,36.55,32.969,53.045,51.344c7.972,8.88,7.331,14.157,11.9,25.918
		c1.562,4.02,8.218,17.924,13.302,19.029c2.357,0.513,13.071-3.888,14.114-0.464c2.046,6.716-9.831,6.198-9.969,11.778
		c-0.082,3.321,4.129,21.366,5.652,24.271c10.829-10.56,17.806-5.742,25.641,7.493c8.056,13.609-19.941,9.751-20.828,16.903
		c-2.981,24.042,110.61-13.483,117.338-12.265c-7.135,15.55-47.646,8.465-49.758,24.581c24.331,7.657,54.894-17.604,77.352-24.531
		c32.004-9.872,57.272-24.367,83.082-45.049c18.397-14.741,20.973-46.399,33.844-65.239c20.246-29.635,1.705-65.026,15.852-93.741
		c10.693-21.704,10.625-53.391,17.445-76.938c38.757-7.969,57.116-18.149,55.756-62.501c-0.957-31.218-3.282-64.767,2.925-95.385
		C583.185,396.408,600.488,346.054,567.48,341.838C561.211,341.037,580.891,343.551,567.48,341.838z"/>
	<path d="M466.996,114.008c-2.92-0.338-5.225,3.253-6.846,5.109c-0.611,0.7,0.046,0.86-0.909,1.051
		c-1.411,0.282-2.969-1.556-4.003-2.263c-1.904-1.302-4.076-2.544-6.229-3.371c-3.426-1.316-7.396-3.358-10.669-0.683
		c-1.403,1.146-1.077,1.023,0.27,2.407c1.69,1.736,2.807,3.853,4.359,5.725c1.261,1.521,2.644,1.952,4.228,3.043
		c2.293,1.579,4.167,2.951,6.832,3.976c1.643,0.632,3.809,1.114,5.233,2.162c0.797,0.586,1.437,1.325,2.269,1.905
		c2.046,1.425,4.015,2.937,6.09,4.344c3.257,2.208,5.577,5.126,8.432,7.775c4.391,4.074,7.667,8.76,11.31,13.453
		c3.756,4.838,7.277,10,10.489,15.211c1.768,2.868,2.9,6.07,4.519,9.028c1.855,3.39,3.646,6.732,5.076,10.33
		c1.889,4.751,3.317,10.031,6.067,14.379c1.284,2.03,4.141,2.761,5.095,0.061c1.437-4.065-2.432-5.279-3.623-8.308
		c-0.785-1.996-0.788-4.332-1.447-6.392c-0.649-2.028-1.456-3.638-2.677-5.349c-1.063-1.49-3.107-4.185-3.412-6.015
		c-0.177-1.063,0.717-2.614,1.366-3.411c2.108-2.589,2.509,0.7,3.58,2.209c0.593,0.836,1.51,1.353,2.34,1.892
		c2.385,1.548,3.162,1.696,3.447,4.319c0.189,1.738,0.141,4.756,1.711,5.929c3.082,2.304,2.324-3.054,1.617-4.507
		c-2.23-4.58-5.747-8.647-6.886-13.702c-0.486-2.156-1.215-3.069-2.411-4.891c-1.698-2.586-2.965-5.802-4.093-8.663
		c-1.065-2.701-2.131-5.969-2.46-8.871c-0.454-3.996-0.75-8.12-2.72-11.763c-2.315-4.281-6.532-6.847-9.965-10.122
		c-2.867-2.734-5.788-5.346-8.814-7.903c-4.34-3.667-9.629-4.444-14.459-7.072c-0.778-0.423-2.372-1.804-2.996-0.879"/>
	<path d="M476.388,157.816c-1.272-1.777-9.368-4.493-8.074-0.155c0.955,3.2,6.615,1.891,4.618,6.734
		c-1.448,3.512-5.57,4.557-6.618,8.541c-1.159,4.412,2.723,4.419,4.521,7.984c1.857,3.681-0.449,7.782,1.055,11.195
		c0.665,1.51,1.59,1.579,2.83,2.455c1.581,1.116,2.472,2.655,3.846,4.001c2.767,2.709,9.476,12.12,12.764,6.318
		c1.494-2.637,1.17-2.978,3.813-3.41c4.086-0.668,3.779-4.508,3.629-8.174c-0.358-8.753-5.28-16.583-11.759-22.254
		c-1.876-1.642-4.447-2.199-6.046-4.224c-1.003-1.27-1.326-2.874-1.942-4.339c-0.758-1.807-1.807-3.674-2.639-5.317"/>
	<path d="M508.581,300.28c-0.308-0.06-0.514,0.068-0.822-0.029c-0.575-3.191,2.382-4.975,0.653-7.903
		c-1.422-2.409-7.849-4.608-10.654-4.467c-1.481,3.066,0.9,4.625,2.199,6.978c1.384,2.508,1,4.216,0.866,6.998
		c-0.175,3.619,0.912,6.638-0.058,9.579c-2.157,6.54-0.177,10.446,2.884,16.527c1.41,2.802,5.026,10.854,8.674,6.955
		c4.115-4.397-1.003-14.807-1.186-19.699c-0.154-4.105,2.209-4.837,4.67-7.456c3.543-3.77,2.958-6.858-2.321-6.844
		c-1.534,0.004-2.106-0.142-3.326-0.43c-0.922-0.218-0.955-0.772-1.865-0.495"/>
	<path d="M537.905,343.657c0.565-1.86-3.586-2.24-4.873-1.571c-2.895,1.505-2.23,6.087-3.445,8.738
		c-1.179,2.571-1.818,3.805-0.458,6.607c1.569,3.233,5.214,4.427,8.735,3.629c6.3-1.428,4.584-8.458,3.67-13.061
		c-0.31-1.56-2.5-7.158-4.705-6.062"/>
	<path d="M539.411,267.944c-0.345-1.905-2.667-1.372-3.447-0.139c-0.875,1.384,0.011,5.693,0.37,7.267
		c0.571,2.505,6.105,9.932,8.504,5.417c1.008-1.897-2.533-4.404-3.303-5.727c-0.692-1.19-1.252-2.789-1.445-4.151
		c-0.184-1.293,0.546-2.89-1.108-3.313"/>
	<path d="M566.117,365.551c-4.192-4.432-15.908-0.042-20.406,1.94c-7.335,3.231-9.64,10.002-11.81,17.268
		c-0.901,3.016-1.226,5.475-1.336,8.608c-0.043,1.227-0.799,3.743-0.55,4.874c0.426,1.938,4.839,4.948,6.371,2.223
		c2.222-3.951-5.443-4.113,1.147-8.22c3.724-2.321,5.253,0.214,7.619,3.14c5.394,6.669,10.419,15.498,11.44,24.18
		c0.341,2.9-0.212,5.607-0.454,8.472c-0.315,3.729,0.46,6.946,0.977,10.591c0.513,3.617-1.296,19.462,4.409,19.924
		c6.849,0.554,3.56-11.887,3.435-15.113c-0.166-4.301,0.59-8.38,0.846-12.642c0.238-3.962-0.214-7.99,0.436-11.932
		c0.778-4.715,3.031-8.917,4.752-13.318c1.765-4.514,3.778-11.037,3.439-15.92c-0.378-5.441-2.899-10.695-3.74-16.071
		c-0.569-3.637-2.636-8.364-7.148-8.579"/>
	<path d="M166.704,259.553c-3.535,3.759,4.157,4.623,5.848,5.858c0.75,0.548,0.783,1.477,1.424,1.867
		c0.709,0.43,2.17,0.072,2.725,0.672c3.291,3.553-5.456,1.961-6.191,1.725c-4.584-1.469-8.564-1.516-13.386-1.516
		c-4.407,0.001-8.607-0.158-12.647,1.876c-3.726,1.876-5.491,5.589-9.15,7.541c-5.294,2.824-11.857,4.002-16.703,7.571
		c-4.281,3.153-7.245,10.127-4.055,14.898c1.263,1.889,4.489,3.103,6.573,3.613c2.894,0.708,2.324,0.003,2.049-2.23
		c-0.268-2.179-1.062-6.111,0.901-7.719c2.239-1.835,6.623,0.316,9.263,0.017c3.107-0.352,5.475-1.602,7.438-3.991
		c1.903-2.315,2.553-6.23,5.847-6.972c2.028,2.807-2.246,8.058-3.488,10.422c-2.131,4.059-5.011,7.605-7.205,11.647
		c-1.336,2.461-3.66,6.406,1.446,5.701c2.187-0.302,2.506-1.685,3.923-2.98c2.154-1.968,4.606-2.261,7.464-2.843
		c8.946-1.821,19.871,0.966,27.673,5.457c3.076,1.771,5.648,4.22,8.492,6.357c1.841,1.383,4.468,2.812,5.772,4.742
		c-2.531,1.263-7.491-0.174-10.123-0.882c-4.081-1.098-6.786-2.757-11.148-2.752c-5.401,0.006-10.963,0.943-16.228,2.144
		c-2.19,0.5-9.896,1.149-9.975,4.063c2.138,1.265,5.238,0.072,7.544-0.192c5.244-0.6,10.772-1.717,16.028-1.903
		c2.963-0.104,2.179,0.665,3.512,2.386c1.799,2.32,5.27,3.085,8.02,3.394c3.235,0.363,5.026,1.586,2.896,4.913
		c-1.512,2.362-3.649,2.686-6.25,2.841c-4.279,0.255-7.456,0.307-11.323,2.298c-5.089,2.62-10.307,3.36-15.838,4.444
		c-3.927,0.77-10.356,1.566-13.322,4.513c-2.727,2.71-4.398,7.219-6.581,10.451c-0.977,1.446-3.788,5.319-2.289,6.994
		c2.727,3.048,10.991-3.348,13.02-5.008c2.662-2.177,5.351-4.284,7.808-6.731c1.721-1.714,7.4-6.413,10.076-4.122
		c2.797,2.394-0.664,6.612-0.675,9.265c-0.007,1.71,1.483,4.491-0.171,6.034c0.984,3.305,6.599,4.645,9.654,4.936
		c3.398,0.324,7.084-0.95,10.43-1.467c4.691-0.724,9.402-1.376,14.043-2.365c2.016-0.43,4.276-1.693,5.935-0.019
		c2.976,3.001-1.561,4.493-3.838,5.111c-5.331,1.447-10.836,2.522-15.883,4.758c-2.259,1.001-4.756,2.264-7.291,2.226
		c0.438,0.954,0.917,3.353,1.969,4.044c1.003,0.659,3.29,0.237,4.435,0.179c2.664-0.134,5.342-0.098,8.002-0.323
		c2.57-0.218,5.155-0.175,7.713-0.478c1.64-0.194,3.975-1.323,4.832,0.448c1.746,3.611-5.635,3.884-7.457,4.393
		c-3.761,1.052-5.286,5.516-8.08,7.827c-1.833,1.517-13.274,6.979-6.564,9.74c4.846,1.994,2.279-3.755,5.364-4.132
		c4.235-0.518-1.304,5.261-1.792,5.837c-1.346,1.588-5.23,6.361-0.803,6.681c3.118,0.226,6.74-5.274,8.952-7.108
		c3.63-3.008,8.052-4.857,11.992-7.462c4.497-2.973,7.622-6.973,11.33-10.795c3.292-3.393,6.114-7.207,9.293-10.702
		c2.006-2.206,4.439-4.378,5.676-7.151c2.079-4.659,1.796-8.858,5.698-12.653c1.894-1.843,4.441-3.591,4.899-6.291
		c0.319-1.883-0.229-3.998-0.291-5.862c-0.374,0.198-0.868,0.259-1.227,0.547c0.022-1.116,0.883-2.141,1.068-3.428
		c0.402-2.806-0.049-5.319-1.198-7.795c-1.991-4.288-3.254-8.876-4.913-13.311c-1.61-4.303-2.021-8.299-5.251-11.653
		c-1.73-1.797-4.792-2.576-7.019-0.98c-1.753,1.256-1.675,3.666-3.952,4.57c0.355,0.709,0.749,1.395,1.183,2.058
		c0.256-0.131,0.349-0.262,0.473-0.367c-2.608,2.047-11.887,2.17-13.821-0.71c-0.616-0.917-0.45-1.752-1.284-2.596
		c-1.029-1.041-2.465-0.68-3.556-1.367c-0.948-0.597-2.692-2.525-2.575-3.644c0.746,0.297,0.643-0.104,1.014,0.584
		c-0.751-0.518-1.257-1.85-1.935-2.8c-2.029-2.844-4.099-5.247-7.017-7.238c-1.831-1.249-3.506-2.517-5.454-3.523
		c-2.155-1.113-3.756-1.26-3.832-3.786c-0.095-3.187,2.454-2.33,5-1.963c3.709,0.536,7.647-1.33,10.982-2.66
		c5.018-2.002,7.628-4.464,7.45-9.889c0.124-0.144-0.024,0.463-0.026,0.48c-0.715-0.682-0.667-0.421-0.635-1.3
		c-4.327-2.337-7.944-6.081-12.461-8.005c-2.998-1.277-5.28-2.632-8.437-3.275C173.562,260.141,169.418,256.667,166.704,259.553z"/>
	<path d="M325.321,455.148c-4.418-1.859-6.443,1.732-9.643,3.938c-6.296,4.341-14.024,5.335-19.995,10.523
		c-3.217,2.795-9.408,7.659-10.854,11.773c-0.976,2.778,0.521,5.729,0.087,8.533c-0.572,3.702-1.93,5.597-0.885,9.562
		c0.805,3.055,2.346,6.585,5.494,7.936c1.265,0.543,2.984,0.071,4.036,0.807c0.967,0.677,1.408,2.037,2.415,2.802
		c1.87,1.421,5.8,2.52,8.119,1.748c3.047-1.014,3.061-4.117,5.129-6.026c2.286-2.11,6.347-2.94,9.077-4.716
		c6.691-4.353,11.2-12.005,14.202-19.362c2.427-5.946,2.961-12.23-0.292-17.831c-1.547-2.664-4.906-12.371-9.473-10.261"/>
	<path d="M253.909,471.495c-4.904,0.207-8.268-1.143-12.555,1.658c-4.938,3.227-6.478,5.878-6.043,12.042
		c0.781,11.065,14.604,5.904,21.394,4.726c3.75-0.65,5.348-0.93,6.438-4.659c0.867-2.965,1.413-5.94-0.036-8.738
		c-1.019-1.968-3.851-4.47-6.028-5.049c-0.886-0.236-2.015,0.128-2.867,0.041c-1.232-0.127-1.406-1.079-2.597-0.594"/>
	<path d="M521.988,535.751c1.886-2.095,3.826,3.71,4.729,4.649c1.195,1.245,3.348,2.298,4.947,2.888
		c4.51,1.664,9.649,2.023,14.227,0.419c3.482-1.22,7.65-4.499,11.282-4.751c1.849-0.129,3.194,0.386,2.922,2.608
		c-0.33,2.697-4.911,4.61-6.764,6.285c-2.827,2.555-5.22,5.605-8.576,7.489c-3.964,2.225-8.249,3.166-12.716,3.651
		c-4.041,0.439-11.003,1.647-10.646-4.049c0.106-1.684,0.887-3.352,0.838-5.05c-0.072-2.481-0.878-5.058-1.095-7.549
		c-0.174-1.989-0.319-6.772,2.574-7.023"/>
	<path d="M548.015,464.97c-0.875,1.949-0.817,4.112-1.259,6.164c-0.533,2.471-1.547,4.841-2.281,7.266
		c-1.162,3.837-2.597,7.638-3.67,11.495c-1.107,3.978-1.153,7.497,3.396,8.606c3.376,0.823,9.535,0.117,11.786-2.807
		c2.479-3.221,0.499-6.615-0.727-9.73c-1.377-3.5-1.761-7.34-3.157-10.878c-1.065-2.698-1.771-5.346-2.533-8.087
		c-0.333-1.198-0.77-3.068-2.414-1.599"/>
	<path d="M538.766,427.974c-2.866-1.694-3.595-7.041-7.662-6.66c-6.099,0.572-0.467,7.767,0.7,9.996
		c1.906,3.64,3.798,7.154,6.096,10.58c1.398,2.083,2.971,5.43,5.081,6.957c1.801,1.303,3.686,1.505,3.72-0.809
		c0.017-1.196-0.807-2.824-0.997-4.063c-0.3-1.956-0.229-3.972-0.512-5.912c-0.422-2.893-1.968-5.724-4.292-7.48
		c-1.461-1.104-2.004-1.378-2.349-3.039"/>
	<path d="M421.683,249.231c-5.922-0.669-11.551-2.443-17.502-2.651c-8.32-0.29-16.835-1.191-25.135-0.567
		c-4.9,0.368-5.092,2.414-8.709,4.993c-7.178,5.118-16.756,6.984-24.798,10.191c-6.092,2.429-15.033,4.046-18.798,9.83
		c-1.277,1.962-1.822,3.097-3.98,4.242c-0.683,0.362-2.286,1.211-3.081,1.205c-0.758-0.006-1.655-1.22-2.073-1.141
		c-5.374,1.019-1.537,6.422-2.922,9.438c-1.315,2.863-8.661,3.476-11.545,4.394c-3.264,1.04-7.187,0.803-6.49,5.159
		c0.345,2.158,2.097,3.784,2.032,6.193c-0.062,2.323-1.372,4.471-1.838,6.783c-0.923,4.581,0.963,7.931,1.245,12.435
		c0.261,4.167,0.579,8.21,0.917,12.373c0.601,7.415,2.205,14.415,7.319,20.091c5.222,5.795,13.27,8.767,18.055,14.963
		c4.051,5.246,7.113,11.309,10.979,16.721c7.079,9.912,12.642,23.455,25.335,27.177c7.315,2.145,13.622,4.325,20.401,7.738
		c6.027,3.034,14.636,5.63,20.793,2.796c3.138-1.444,5.516-1.344,9.149-1.657c3.718-0.32,6.933-1.537,2.3-4.149
		c-3.08-1.737-6.635-3.1-10.001-4.174c-3.05-0.973-8.779-1.142-10.659-4.125c-1.641-2.603,0.308-6.099,0.326-8.859
		c0.02-3.072-1.175-7.113,1.902-8.313c2.869-1.119,8.224,1.443,11.275,1.674c5.712,0.434,7.354-1.048,7.474-6.596
		c0.157-7.285,10.778-14.173,17.564-15.218c4.067-0.626,6.841,1.301,10.692,2.025c4.944,0.93,4.774-1.213,3.632-4.953
		c-1.242-4.07,0.12-5.366,3.667-2.794c2.29,1.661,6.818,6.027,9.912,4.37c2.292-1.228,4.265-6.024,5.923-8.056
		c2.744-3.365,3.4-4.074,3.385-8.855c-0.012-3.808,1.722-9.732,0.534-13.254c-0.891-2.641-3.008-4.729-3.977-7.67
		c-1.301-3.95-3.667-8.348-3.739-12.5c-0.045-2.601,0.299-5.259,0.299-7.897c0-4.931,0.435-10.111-1.156-14.686
		c-0.51-1.467-2.753-5.214-1.236-6.548c0.925-0.813,3.26,0.009,4.358-0.032c0.979-1.371,0.956-5.019,1.125-6.824
		c0.383-4.094-1.089-6.976-3.159-10.289c-0.282,0.326-0.719,0.21-1.094,0.948c-2.481-2.27-2.56-5.251-4.337-7.875
		c-2.825-4.173-10.667-7.134-15.275-8.625c-2.656-0.859-5.465-1.307-8.107-2.274c-2.208-0.808-2.94-2.094-5.009-3.088
		c-1.717-0.825-5.226-0.069-5.4-2.64"/>
	<path fill="#FFFFFF" d="M407.63,319.782c-3.259,0.066-4.818-0.81-7.689-2.098c-3.746-1.681-8.324-1.364-12.362-1.566
		c-8.139-0.407-14.967,1.788-21.282,6.783c-2.104,1.664-4.566,2.786-5.657,5.387c-0.677,1.614-2.732,6.765-2.061,8.35
		c1.368,3.231,6.245,2.271,8.738,1.943c6.261-0.824,12.722-1.107,19.013-0.451c6.776,0.706,13.465,1.869,19.979,3.863
		c3.586,1.098,13.363,6.198,15.759,1.599c0.86-1.65,0.032-4.783-0.303-6.496c-1.04-5.322-3.821-5.881-7.868-8.796
		c-2.304-1.659-3.99-3.712-5.427-6.012c-0.724-1.159-0.132-2.353-1.988-2.791"/>
	<path fill="#FFFFFF" d="M447.781,267.872c0.298-0.117,0.61,0.226,0.515-0.259c-0.577-0.608-1.63-1.039-2.412-1.137
		c-3.551,3.482,1.784,8.762,4.801,9.94c1.231,0.481,1.936,0.427,2.975,1.199c0.647,0.481,1.349,2.349,2.223,2.215
		c1.61-0.247,1.024-3.286,0.795-4.213c-0.681-2.749-2.061-2.647-4.121-4.232c-1.653-1.273-2.316-4.612-4.775-4.086"/>
	<path fill="#520F11" d="M28.491,416.431c1.132-3.023,5.39-5.054,1.403-7.986c-4.216-3.101-11.19-1.98-16.007-2.396
		c-4.649-0.401-7.102-0.583-10.293,3.542c-3.763,4.862-3.323,12.01-3.557,17.86c-0.545,13.594,5.293,26.27,10.15,38.79
		c4.083,10.528,4.125,21.896,8.246,32.261c2.054-2.408,1.539-6.351,1.736-9.37c0.347-5.324,0.688-10.537,0.516-15.886
		c-0.331-10.27-1.463-19.823,0.122-30.052c1.136-7.332,3.118-14.79,5.342-21.863c0.64-2.034,1.225-4.09,2.631-5.76"/>
	<path fill="#520F11" d="M35.087,492.144c-3.462,0.376-3.448,4.841-3.45,7.457c-0.003,3.357-0.538,5.634-1.382,8.865
		c-1.017,3.895-1.09,9.024,2.498,11.744c2.456,1.861,7.401,3.235,9.828,0.916c5.997-5.729-2.139-15.162-3.092-21.133
		c-0.255-1.601-2.634-13.05-6.41-7.848"/>
	<path d="M205.728,462.317c-3.356-3.553-8.361-3.897-9.228-9.247c-6.35,1.813-2.492,11.232-5.314,15.261
		c-1.23,1.756-4.883,2.364-5.469,4.682c-0.591,2.34,1.821,3.639,1.699,5.218c-0.434,5.638-2.145,2.731-5.274,7.127
		c-1.917,2.693-0.371,6.238-1.582,9.079c-1.839,4.317-6.107,6.693-8.099,11.156c-2.135,4.783-3.501,10.036-6.285,14.527
		c-2.137,3.448-7.504,7.468-4.693,12.238c3.505,5.947,10.442,0.282,13.942-2.473c10.098-7.95,12.695-17.175,18.643-27.961
		c1.964-3.56,4.315-8.295,7.769-10.479c3.065-1.937,4.969-0.846,8.337-1.713c14.57-3.749,2.427-26.423-6.169-30.286"/>
	<path d="M369.773,581.623c-3.442-0.909-6.462-3.768-9.428-5.596c-6.924-4.268-14.781-6.94-22.66-8.936
		c-5.067-1.284-10.282-1.53-15.334-2.821c-3.581-0.915-6.692-2.733-10.246-3.664c-3.801-0.996-7.677-0.896-11.5-1.701
		c-3.156-0.665-5.987-1.254-9.211-0.409c-7.053,1.848-12.32,5.917-17.212,11.144c-2.058,2.199-3.564,4.472-5.892,6.354
		c-1.281,1.035-3.576,1.797-3.302,3.932c0.614,4.783,17.237,2.267,20.816,2.271c8.529,0.011,17.812-1.449,26.252,0.124
		c7.11,1.325,15.643,2.481,21.898,6.052c7.012,4.003,15.288,3.854,23.061,5.644c10.548,2.429,17.951,8.218,24.653,16.447
		c5.428,6.665,12.008,11.968,17.895,18.149c2.219,2.329,7.393,8.292,10.935,8.478c8.77,0.46,5.319-18.99,2.895-23.281
		c-2.017-3.571-6.442-5.823-8.104-9.437c-0.77-1.674-0.592-3.8-1.373-5.613c-1.082-2.512-2.534-4.63-4.245-6.739
		c-4.68-5.771-10.689-8.033-17.992-9.303c-4.133-0.719-9.924,0.422-13.625-1.954"/>
	<path d="M312.415,598.831c-12.28,0-24.715-1.35-36.834,0.418c-6.892,1.006-13.557,3.323-19.95,6.003
		c-5.097,2.137-14.153,4.441-18.397,7.92c-9.519,7.804,6.271,2.365,9.819,2.294c3.217-0.064,5.609,1.128,8.704,1.733
		c5.715,1.117,11.766-0.308,17.535,0.561c8.12,1.223,13.148,10.266,21.213,13.648c8.313,3.485,14.483,3.379,23.643,2.986
		c3.619-0.155,9.735,1.33,13.062,0.039c4.129-1.602,3.171-4.427,8.751-4.054c6.639,0.444,14.183,6.124,20.52,8.445
		c6.836,2.504,26.789,18.867,31.199,8.172c-7.257-6.285-16.629-7.978-23.053-15.903c-5.107-6.302-6.058-11.116-7.588-18.499
		c-3.294-15.893-18.584-3.156-27.832-8.419c-4.758-2.708-5.772-7.043-12.106-7.075C317.879,597.084,315.504,598.741,312.415,598.831
		"/>
	<path d="M253.336,576.461c-2.564-2.935-4.252-6.238-8.54-6.615c-3.892-0.342-6.886,2.242-10.599,2.941
		c-2.945,0.555-2.926,0.246-5.225-0.699c-2.855-1.173-2.792-1.522-4.866,0.854c-4.503,5.158-8.199,5.946-14.663,7.751
		c-7.372,2.058-10.183,9.503-17.824,10.904c-10.284,1.885-19.384,7.093-25.641,15.727c-1.722,2.376-6.19,6.973-5.873,10.092
		c0.291,2.865,3.277,3.488,5.696,2.66c1.847-0.633,3.072-2.298,4.575-3.463c2.194-1.7,4.825-2.516,6.958-4.302
		c3.936-3.297,5.044-7.715,8.099-11.416c1.824-2.209,4.31-2.5,6.594-3.778c2.974-1.663,6.172-3.961,8.842-6.037
		c3.068-2.386,5.558-4.441,9.598-4.882c1.235-0.135,2.57,0.241,3.787-0.044c1.74-0.407,3.007-1.767,4.668-2.242
		c6.72-1.923,14.117-1.745,20.928-3.443c4.219-1.052,8.723,0.08,12.84-0.847c3.782-0.851,2.546-2.936-0.214-4.882"/>
	<path d="M489.509,614.461c4.254-4.099,11.971-17.745,14.198-5.326c1.605,8.95,0.136,22.598-2.079,31.334
		c-0.908,3.578-3.06,4.871-4.505,8.071c-1.231,2.728-0.073,5.296-0.751,8.013c-0.595,2.383-2.436,3.977-3.083,6.253
		c-0.886,3.117,0.154,6.173,0.836,9.221c1.14,5.098,2.876,8.863-0.876,12.629c-5.582,5.603-9.339,9.051-10.577,17.564
		c-0.927,6.38-2.175,9.946-5.454,15.411c-2.227,3.711-2.946,6.551-2.858,10.923c0.29,14.402,14.29-4.62,16.865-10.129
		c4.002-8.563,6.136-18.747,7.95-27.975c1.24-6.308,2.261-13.837,7.009-18.68c2.327-2.374,0.586-2.524,3.534-2.136
		c2.308,0.304,4.588,2.753,6.982,3.429c8.765,2.472,17.498,5.875,22.066,14.897c3.333,6.584,0.801,11.17-3.603,16.302
		c-3.181,3.707-8.296,11.822-14.204,10.628c-2.017,5.591-1.103,11.933-2.816,17.782c-2.648,9.04-7.682,18.202-12.643,26.152
		c-11.1,17.791-19.948,37.697-38.766,48.703c-7.211,4.217-14.631,8.744-22.323,12.058c-5.168,2.226-10.749,3.551-15.993,5.617
		c-4.398,1.733-9.209,6.9-13.894,6.992c-1.701-7.281,13.254-12.011,17.289-14.786c6.647-4.571,12.577-11.897,17.686-18.146
		c2.202-2.693,2.131-5.538,3.696-8.465c1.707-3.195,5.206-5.542,7.369-8.512c3.106-4.263,6.083-8.597,9.376-12.725
		c2.766-3.468,13.631-18.303,6.026-20.901c-2.526-0.863-11.113,9.385-12.578,10.862c-7.294,7.353-14.855,14.206-23.366,20.175
		c-9.56,6.705-20.005,12.139-29.651,18.77c-14.652,10.073-30.94,17.691-46.48,26.175c-6.377,3.481-12.207,6.242-19.215,8.736
		c-12.69,4.515-23.919,11.898-36.462,16.485c-7.864,2.876-23.63,5.881-31.833,1.871c-3.694-1.806-8.815-12.278-3.997-15.621
		c5.173-3.585,10.895,5.788,14.982-2.595c2.502-5.132-0.374-11.768,2.912-16.68c1.993-2.98,4.552-1.769,7.498-3.029
		c-0.325-2.394-3.528-2.026-5.304-3.143c-3.79-2.383-4.806-6.229-4.674-10.418c0.139-4.43,1.81-11.686-1.961-15.12
		c-2.438-2.22-3.965-0.13-6.328-0.808c-3.738-1.073-2.04-4.214-3.012-6.76c-1.062-2.782-3.367-3.502-5.373-5.655
		c-3.131-3.361-4.764-7.32-6.645-11.407c-2.977-6.47-5.211-8.824-11.19-11.779c-6.739-3.33-9.998-8.519-13.755-14.546
		c-0.722-1.158-2.152-2.579-2.639-3.849c-1.689-4.4-1.27-2.685,2.409-6.249c5.375-5.208,6.037-13.527,9.806-19.823
		c2.033-3.396,3.524-5.751,4.67-9.567c0.954-3.174,1.237-7.238,5.064-8.217c1.182,8.401-0.518,16.65-1.479,24.892
		c-0.531,4.56-0.214,9.379,3.132,12.943c3.836,4.085,4.856,1.996,7.841-1.422c2.991-3.426,6.668-7.699,11.232-8.705
		c3.766-0.83,4.505,0.776,7.381-2.457c6.192-6.96-7.765-9.796-12.448-12.972c2.906-5.46,12.158-3.856,17.073-6.016
		c3.728-1.639,5.495-4.069,9.892-4.757c3.463-0.541,6.867-0.258,10.307-0.878c4.209-0.758,8.334-2.182,12.641-2.576
		c5.694-0.521,8.629,1.739,13.729,3.038c4.462,1.137,8.656-0.441,12.766,2.24c3.595,2.345,4.178,4.378,8.956,5.048
		c7.763,1.088,15.723-2.08,23.625-2.086c8.801-0.006,27.858-2.981,29.111-14.417c0.28-2.555-1.173-8.056-2.719-10.193
		c-1.975-2.731-6.264-3.763-6.988-7.528c-1.251-6.504,12.21-11.481,16.75-14.499c5.266-3.501,15.094-5.052,21.281-3.751
		c3.791,0.797,4.569,4.485,8.994,5.746c5.863,1.669,13.861,3.495,17.293-1.812c4.219-6.525,2.374-11.83,9.252-16.747
		c4.77-3.41,7.987-8.234,12.355-12.165c4.895-4.405,7.473-8.699,11.446-13.259"/>
	<path d="M160.128,345.306c-2.421-1.315-5.145-0.164-7.575,0.64c-6.673,2.206-15.928,4.359-20.375,10.365
		c-1.714,2.315-1.001,4.845-2.208,7.069c1.795,0.972,4.035,0.442,6.006,0.647c4.343,0.452,8.311,2.305,12.394,3.548
		c6.381,1.942,15.028,2.234,21.241-0.462c8.878-3.854,11.636-11.692,3.111-17.894c-5.317-3.868-11.268-2.76-16.609-5.346"/>
</g>
</svg>
