<?xml version="1.0" encoding="utf-8"?>
<!-- Generator: Adobe Illustrator 17.0.0, SVG Export Plug-In . SVG Version: 6.00 Build 0)  -->
<!DOCTYPE svg PUBLIC "-//W3C//DTD SVG 1.1//EN" "http://www.w3.org/Graphics/SVG/1.1/DTD/svg11.dtd">
<svg version="1.1" id="Layer_1" xmlns="http://www.w3.org/2000/svg" xmlns:xlink="http://www.w3.org/1999/xlink" x="0px" y="0px"
	 width="63px" height="1858px" viewBox="0 0 63 1858" enable-background="new 0 0 63 1858" xml:space="preserve">
<line fill="none" stroke="#FFFFFF" stroke-width="5" stroke-miterlimit="10" x1="0.5" y1="0" x2="0.5" y2="1858"/>
<line fill="none" stroke="#FFFFFF" stroke-width="5" stroke-miterlimit="10" x1="61.5" y1="0" x2="61.5" y2="1858"/>
<line fill="none" stroke="#FFFFFF" stroke-width="10" stroke-miterlimit="10" x1="2" y1="74" x2="63" y2="74"/>
<line fill="none" stroke="#FFFFFF" stroke-width="10" stroke-miterlimit="10" x1="2" y1="153" x2="63" y2="153"/>
<line fill="none" stroke="#FFFFFF" stroke-width="10" stroke-miterlimit="10" x1="2" y1="232" x2="63" y2="232"/>
<line fill="none" stroke="#FFFFFF" stroke-width="10" stroke-miterlimit="10" x1="2" y1="311" x2="63" y2="311"/>
<line fill="none" stroke="#FFFFFF" stroke-width="10" stroke-miterlimit="10" x1="2" y1="390" x2="63" y2="390"/>
<line fill="none" stroke="#FFFFFF" stroke-width="10" stroke-miterlimit="10" x1="2" y1="469" x2="63" y2="469"/>
<line fill="none" stroke="#FFFFFF" stroke-width="10" stroke-miterlimit="10" x1="2" y1="548" x2="63" y2="548"/>
<line fill="none" stroke="#FFFFFF" stroke-width="10" stroke-miterlimit="10" x1="2" y1="627" x2="63" y2="627"/>
<line fill="none" stroke="#FFFFFF" stroke-width="10" stroke-miterlimit="10" x1="2" y1="36" x2="63" y2="36"/>
<line fill="none" stroke="#FFFFFF" stroke-width="10" stroke-miterlimit="10" x1="2" y1="115" x2="63" y2="115"/>
<line fill="none" stroke="#FFFFFF" stroke-width="10" stroke-miterlimit="10" x1="2" y1="194" x2="63" y2="194"/>
<line fill="none" stroke="#FFFFFF" stroke-width="10" stroke-miterlimit="10" x1="2" y1="273" x2="63" y2="273"/>
<line fill="none" stroke="#FFFFFF" stroke-width="10" stroke-miterlimit="10" x1="2" y1="352" x2="63" y2="352"/>
<line fill="none" stroke="#FFFFFF" stroke-width="10" stroke-miterlimit="10" x1="2" y1="431" x2="63" y2="431"/>
<line fill="none" stroke="#FFFFFF" stroke-width="10" stroke-miterlimit="10" x1="2" y1="510" x2="63" y2="510"/>
<line fill="none" stroke="#FFFFFF" stroke-width="10" stroke-miterlimit="10" x1="2" y1="589" x2="63" y2="589"/>
<line fill="none" stroke="#FFFFFF" stroke-width="10" stroke-miterlimit="10" x1="2" y1="627" x2="63" y2="627"/>
<line fill="none" stroke="#FFFFFF" stroke-width="10" stroke-miterlimit="10" x1="2" y1="665" x2="63" y2="665"/>
<line fill="none" stroke="#FFFFFF" stroke-width="10" stroke-miterlimit="10" x1="2" y1="703" x2="63" y2="703"/>
<line fill="none" stroke="#FFFFFF" stroke-width="10" stroke-miterlimit="10" x1="2" y1="741" x2="63" y2="741"/>
<line fill="none" stroke="#FFFFFF" stroke-width="10" stroke-miterlimit="10" x1="2" y1="779" x2="63" y2="779"/>
<line fill="none" stroke="#FFFFFF" stroke-width="10" stroke-miterlimit="10" x1="2" y1="817" x2="63" y2="817"/>
<line fill="none" stroke="#FFFFFF" stroke-width="10" stroke-miterlimit="10" x1="2" y1="855" x2="63" y2="855"/>
<line fill="none" stroke="#FFFFFF" stroke-width="10" stroke-miterlimit="10" x1="2" y1="893" x2="63" y2="893"/>
<line fill="none" stroke="#FFFFFF" stroke-width="10" stroke-miterlimit="10" x1="2" y1="931" x2="63" y2="931"/>
<line fill="none" stroke="#FFFFFF" stroke-width="10" stroke-miterlimit="10" x1="2" y1="969" x2="63" y2="969"/>
<line fill="none" stroke="#FFFFFF" stroke-width="10" stroke-miterlimit="10" x1="2" y1="1007" x2="63" y2="1007"/>
<line fill="none" stroke="#FFFFFF" stroke-width="10" stroke-miterlimit="10" x1="2" y1="1045" x2="63" y2="1045"/>
<line fill="none" stroke="#FFFFFF" stroke-width="10" stroke-miterlimit="10" x1="2" y1="1083" x2="63" y2="1083"/>
<line fill="none" stroke="#FFFFFF" stroke-width="10" stroke-miterlimit="10" x1="2" y1="1121" x2="63" y2="1121"/>
<line fill="none" stroke="#FFFFFF" stroke-width="10" stroke-miterlimit="10" x1="2" y1="1159" x2="63" y2="1159"/>
<line fill="none" stroke="#FFFFFF" stroke-width="10" stroke-miterlimit="10" x1="2" y1="1197" x2="63" y2="1197"/>
<line fill="none" stroke="#FFFFFF" stroke-width="10" stroke-miterlimit="10" x1="2" y1="1235" x2="63" y2="1235"/>
<line fill="none" stroke="#FFFFFF" stroke-width="10" stroke-miterlimit="10" x1="2" y1="1273" x2="63" y2="1273"/>
<line fill="none" stroke="#FFFFFF" stroke-width="10" stroke-miterlimit="10" x1="2" y1="1311" x2="63" y2="1311"/>
<line fill="none" stroke="#FFFFFF" stroke-width="10" stroke-miterlimit="10" x1="2" y1="1349" x2="63" y2="1349"/>
<line fill="none" stroke="#FFFFFF" stroke-width="10" stroke-miterlimit="10" x1="2" y1="1387" x2="63" y2="1387"/>
<line fill="none" stroke="#FFFFFF" stroke-width="10" stroke-miterlimit="10" x1="2" y1="1425" x2="63" y2="1425"/>
<line fill="none" stroke="#FFFFFF" stroke-width="10" stroke-miterlimit="10" x1="2" y1="1463" x2="63" y2="1463"/>
<line fill="none" stroke="#FFFFFF" stroke-width="10" stroke-miterlimit="10" x1="2" y1="1501" x2="63" y2="1501"/>
<line fill="none" stroke="#FFFFFF" stroke-width="10" stroke-miterlimit="10" x1="2" y1="1539" x2="63" y2="1539"/>
</svg>
